<?xml version="1.0" standalone="no"?>
<svg version="1.0" xmlns="http://www.w3.org/2000/svg"
 width="300.000000pt" height="300.000000pt" viewBox="0 0 300.000000 300.000000"
 preserveAspectRatio="xMidYMid meet">
<metadata>
Created by potrace 1.10, written by Peter Selinger 2001-2011
</metadata>
<g transform="translate(0.000000,300.000000) scale(0.100000,-0.100000)"
fill="#E0E1DD" stroke="none">
<path d="M1375 2659 c-671 -74 -1137 -685 -1030 -1349 80 -492 469 -879 970
-966 132 -23 338 -15 468 19 313 82 596 308 744 593 328 630 21 1408 -649
1643 -156 54 -348 78 -503 60z m413 -74 c97 -26 250 -91 239 -101 -3 -4 -45
-1 -92 6 -47 7 -106 9 -131 5 -39 -6 -50 -3 -70 16 -13 12 -72 42 -131 66
l-108 44 100 -5 c60 -3 137 -16 193 -31z m-236 -36 c48 -15 110 -40 138 -54
l50 -25 0 -78 c0 -42 -3 -100 -6 -129 l-7 -52 -106 -42 c-58 -24 -151 -66
-206 -94 l-101 -51 -49 13 c-28 7 -99 22 -160 35 -60 12 -113 24 -117 27 -3 3
-12 59 -18 124 l-12 119 38 39 c56 57 175 137 263 176 69 31 82 33 141 28 36
-4 104 -20 152 -36z m-372 26 c0 -2 -21 -18 -47 -36 -90 -61 -180 -139 -197
-172 -13 -23 -30 -37 -56 -45 -21 -6 -82 -30 -135 -53 -53 -23 -99 -39 -102
-35 -9 9 115 127 189 179 76 55 210 123 288 148 66 21 60 20 60 14z m851 -145
l93 -21 91 -84 c51 -46 110 -108 132 -137 l41 -53 7 -156 c3 -86 3 -159 -2
-162 -4 -3 -72 2 -149 11 l-142 17 -48 65 c-27 36 -100 116 -162 178 l-113
113 7 131 7 131 73 -6 c40 -4 114 -16 165 -27z m-1110 -187 c0 -32 4 -80 8
-108 l9 -50 -92 -95 c-50 -52 -107 -116 -126 -142 l-33 -48 -102 0 -103 0 -11
43 c-11 40 -9 46 39 142 84 170 96 181 246 244 71 30 133 58 139 63 19 17 25
6 26 -49z m1112 -370 l47 -61 -63 -114 c-131 -232 -128 -229 -146 -224 -9 3
-59 12 -111 21 -91 16 -267 51 -302 61 -9 3 -19 17 -23 32 -10 38 -85 396 -85
403 0 9 146 81 282 139 l113 48 120 -122 c67 -66 142 -149 168 -183z m454 160
c78 -140 133 -355 133 -520 l0 -84 -27 4 c-21 3 -31 12 -39 38 -70 204 -89
254 -108 282 -20 30 -21 43 -18 190 2 86 7 157 12 157 5 0 26 -30 47 -67z
m-1344 -19 l167 -37 9 -36 c5 -20 26 -116 46 -213 l37 -177 -108 -122 c-60
-68 -123 -138 -140 -157 l-31 -35 -174 59 -174 59 -17 80 c-9 44 -24 134 -33
199 l-15 119 53 71 c56 74 194 226 205 226 4 0 82 -16 175 -36z m-703 -198 c0
-8 12 -24 26 -35 22 -18 41 -21 111 -21 98 0 96 2 107 -120 4 -41 18 -126 31
-188 l24 -112 -47 -63 c-26 -34 -58 -79 -72 -100 -14 -20 -29 -37 -35 -37 -5
0 -41 36 -78 81 -57 67 -73 80 -92 76 -33 -6 -37 8 -42 163 -5 132 10 275 37
344 10 28 30 35 30 12z m1805 -36 c153 -17 153 -18 177 -64 30 -59 98 -265 98
-297 0 -43 -63 -181 -124 -274 -31 -46 -62 -87 -68 -91 -12 -8 -195 -6 -255 2
-40 6 -43 9 -54 48 -5 22 -31 109 -55 192 l-46 150 75 131 c42 72 85 150 97
172 23 46 20 46 155 31z m-620 -300 c77 -16 164 -32 193 -36 l52 -7 34 -111
c57 -185 76 -252 76 -273 0 -18 -149 -192 -231 -270 l-34 -32 -98 9 c-118 11
-274 38 -298 50 -18 10 -73 140 -125 295 l-33 99 56 66 c179 210 217 249 243
244 14 -3 88 -19 165 -34z m966 -156 c-29 -164 -111 -352 -221 -505 -33 -45
-60 -77 -60 -71 0 6 6 35 14 64 7 29 17 86 21 127 7 69 11 78 56 134 51 63
113 176 145 262 18 49 46 83 52 64 2 -5 -1 -39 -7 -75z m-1645 -81 l172 -56
32 -99 c17 -54 49 -142 70 -195 l40 -97 -22 -21 c-13 -12 -56 -52 -95 -90
l-73 -68 -72 28 c-40 15 -107 45 -148 66 -73 36 -76 39 -124 124 -56 99 -118
254 -108 270 39 62 138 195 145 195 6 0 88 -25 183 -57z m-437 -82 c41 -49 61
-84 83 -149 29 -85 65 -161 113 -239 33 -54 15 -66 -27 -17 -108 121 -188 262
-238 414 -36 109 -37 125 -7 85 12 -16 46 -59 76 -94z m1676 -156 c68 -4 112
-10 117 -18 8 -12 5 -47 -14 -155 -9 -53 -8 -66 7 -88 15 -24 16 -28 1 -42
-12 -13 -20 -13 -40 -4 -22 10 -39 4 -145 -48 -140 -70 -227 -104 -241 -95 -8
5 -89 120 -113 161 -3 5 30 48 74 95 44 46 105 114 135 151 51 61 57 66 82 58
15 -5 76 -11 137 -15z m-738 -270 c50 -9 131 -19 179 -23 l87 -7 64 -89 c36
-49 60 -92 56 -95 -5 -3 -47 -33 -93 -66 l-84 -59 -136 0 c-76 -1 -161 5 -194
13 -52 11 -66 21 -132 86 -41 40 -74 79 -74 88 0 8 39 52 88 97 78 73 90 81
117 75 17 -3 71 -12 122 -20z m-575 -80 c63 -30 136 -60 162 -67 28 -7 52 -21
59 -33 6 -11 35 -46 65 -78 30 -31 53 -60 50 -63 -10 -10 -114 26 -199 69 -99
50 -179 102 -243 158 -37 33 -44 44 -35 55 6 8 15 14 19 14 4 0 59 -25 122
-55z m1368 20 c-23 -28 -145 -113 -220 -153 -74 -40 -231 -105 -237 -98 -9 9
114 90 162 106 68 23 203 93 253 131 41 30 62 38 42 14z"/>
</g>
</svg>
